<?xml version="1.0" encoding="UTF-8"?>
<svg width="206px" height="206px" viewBox="0 0 206 206" version="1.1" xmlns="http://www.w3.org/2000/svg" xmlns:xlink="http://www.w3.org/1999/xlink">
    <!-- Generator: Sketch 46.2 (44496) - http://www.bohemiancoding.com/sketch -->
    <title>Group 2</title>
    <desc>Created with Sketch.</desc>
    <defs></defs>
    <g id="Page-1" stroke="none" stroke-width="1" fill="none" fill-rule="evenodd">
        <g id="Artboard" transform="translate(-458.000000, -50.000000)">
            <g id="Group-2" transform="translate(458.000000, 50.000000)">
                <rect id="Rectangle" fill="#B8E986" x="0" y="0" width="206" height="206"></rect>
                <polygon id="T" fill="#FFFFFF" points="118.672 78.944 118.672 200 151.328 200 151.328 78.944 195.84 78.944 195.84 51.488 74.16 51.488 74.16 78.944"></polygon>
                <path d="M125.643607,123.610005 L132.643607,123.610005 L132.643607,157.546005 L152.971607,157.546005 L152.971607,163.594005 L125.643607,163.594005 L125.643607,123.610005 Z M177.811607,128.370005 C175.683596,128.370005 173.844948,128.799334 172.295607,129.658005 C170.746265,130.516676 169.486278,131.664665 168.515607,133.102005 C167.544935,134.539346 166.826276,136.172663 166.359607,138.002005 C165.892938,139.831348 165.659607,141.697996 165.659607,143.602005 C165.659607,145.506015 165.892938,147.372663 166.359607,149.202005 C166.826276,151.031348 167.544935,152.664665 168.515607,154.102005 C169.486278,155.539346 170.746265,156.687334 172.295607,157.546005 C173.844948,158.404676 175.683596,158.834005 177.811607,158.834005 C179.939617,158.834005 181.778265,158.404676 183.327607,157.546005 C184.876948,156.687334 186.136935,155.539346 187.107607,154.102005 C188.078278,152.664665 188.796938,151.031348 189.263607,149.202005 C189.730276,147.372663 189.963607,145.506015 189.963607,143.602005 C189.963607,141.697996 189.730276,139.831348 189.263607,138.002005 C188.796938,136.172663 188.078278,134.539346 187.107607,133.102005 C186.136935,131.664665 184.876948,130.516676 183.327607,129.658005 C181.778265,128.799334 179.939617,128.370005 177.811607,128.370005 Z M177.811607,122.658005 C180.798288,122.658005 183.476928,123.218 185.847607,124.338005 C188.218285,125.458011 190.224932,126.969996 191.867607,128.874005 C193.510281,130.778015 194.770269,132.999326 195.647607,135.538005 C196.524944,138.076685 196.963607,140.764658 196.963607,143.602005 C196.963607,146.476686 196.524944,149.183326 195.647607,151.722005 C194.770269,154.260685 193.510281,156.481996 191.867607,158.386005 C190.224932,160.290015 188.218285,161.792667 185.847607,162.894005 C183.476928,163.995344 180.798288,164.546005 177.811607,164.546005 C174.824925,164.546005 172.146285,163.995344 169.775607,162.894005 C167.404928,161.792667 165.398281,160.290015 163.755607,158.386005 C162.112932,156.481996 160.852944,154.260685 159.975607,151.722005 C159.098269,149.183326 158.659607,146.476686 158.659607,143.602005 C158.659607,140.764658 159.098269,138.076685 159.975607,135.538005 C160.852944,132.999326 162.112932,130.778015 163.755607,128.874005 C165.398281,126.969996 167.404928,125.458011 169.775607,124.338005 C172.146285,123.218 174.824925,122.658005 177.811607,122.658005 Z M202.875607,123.610005 L211.219607,123.610005 L220.291607,137.722005 L229.755607,123.610005 L237.595607,123.610005 L224.379607,142.874005 L238.547607,163.594005 L230.035607,163.594005 L220.067607,148.306005 L209.931607,163.594005 L201.923607,163.594005 L216.091607,142.874005 L202.875607,123.610005 Z" id="LOX" fill="#FFFFFF" transform="translate(182.095607, 143.602005) rotate(-270.000000) translate(-182.095607, -143.602005) "></path>
            </g>
        </g>
    </g>
</svg>